<svg width="36" height="36" viewBox="0 0 36 36" fill="none" xmlns="http://www.w3.org/2000/svg">
<g clip-path="url(#clip0_4093_41387)">
<path d="M10.6816 21.3286C10.6816 22.7887 9.48888 23.9814 8.0288 23.9814C6.56872 23.9814 5.37598 22.7887 5.37598 21.3286C5.37598 19.8685 6.56872 18.6758 8.0288 18.6758H10.6816V21.3286Z" fill="#E01E5A"/>
<path d="M12.0176 21.3286C12.0176 19.8685 13.2103 18.6758 14.6704 18.6758C16.1305 18.6758 17.3232 19.8685 17.3232 21.3286V27.9709C17.3232 29.431 16.1305 30.6238 14.6704 30.6238C13.2103 30.6238 12.0176 29.431 12.0176 27.9709V21.3286Z" fill="#E01E5A"/>
<path d="M14.6704 10.6767C13.2103 10.6767 12.0176 9.484 12.0176 8.02392C12.0176 6.56384 13.2103 5.37109 14.6704 5.37109C16.1305 5.37109 17.3232 6.56384 17.3232 8.02392V10.6767H14.6704Z" fill="#36C5F0"/>
<path d="M14.6711 12.0117C16.1312 12.0117 17.324 13.2045 17.324 14.6645C17.324 16.1246 16.1312 17.3174 14.6711 17.3174H8.0288C6.56872 17.3174 5.37598 16.1246 5.37598 14.6645C5.37598 13.2045 6.56872 12.0117 8.0288 12.0117H14.6711Z" fill="#36C5F0"/>
<path d="M25.3203 14.6645C25.3203 13.2045 26.5131 12.0117 27.9731 12.0117C29.4332 12.0117 30.626 13.2045 30.626 14.6645C30.626 16.1246 29.4332 17.3174 27.9731 17.3174H25.3203V14.6645Z" fill="#2EB67D"/>
<path d="M23.9844 14.6663C23.9844 16.1263 22.7916 17.3191 21.3315 17.3191C19.8715 17.3191 18.6787 16.1263 18.6787 14.6663V8.02392C18.6787 6.56384 19.8715 5.37109 21.3315 5.37109C22.7916 5.37109 23.9844 6.56384 23.9844 8.02392V14.6663Z" fill="#2EB67D"/>
<path d="M21.3315 25.3203C22.7916 25.3203 23.9844 26.5131 23.9844 27.9731C23.9844 29.4332 22.7916 30.626 21.3315 30.626C19.8715 30.626 18.6787 29.4332 18.6787 27.9731V25.3203H21.3315Z" fill="#ECB22E"/>
<path d="M21.3315 23.9814C19.8715 23.9814 18.6787 22.7887 18.6787 21.3286C18.6787 19.8685 19.8715 18.6758 21.3315 18.6758H27.9739C29.434 18.6758 30.6267 19.8685 30.6267 21.3286C30.6267 22.7887 29.434 23.9814 27.9739 23.9814H21.3315Z" fill="#ECB22E"/>
</g>
<defs>
<clipPath id="clip0_4093_41387">
<rect width="25.5" height="25.5" fill="white" transform="translate(5.25195 5.25)"/>
</clipPath>
</defs>
</svg>
