<svg width="516" height="320" viewBox="0 0 516 320" fill="none" xmlns="http://www.w3.org/2000/svg">
<g clip-path="url(#clip0_4142_41321)">
<g clip-path="url(#clip1_4142_41321)">
<path d="M1146.16 -44.7254C1203.22 -192.996 516.971 -110.218 469.129 -245.405C425.519 -368.629 277.016 -647.581 277.016 -647.581" stroke="url(#paint0_linear_4142_41321)" stroke-width="0.5" stroke-miterlimit="10"/>
<path d="M1146.99 -38.9202C1195.81 -182.517 509.534 -104.112 459.596 -240.997C413.539 -366.549 268.037 -644.773 268.037 -644.773" stroke="url(#paint1_linear_4142_41321)" stroke-width="0.5" stroke-miterlimit="10"/>
<path d="M1147.83 -33.1261C1188.4 -172.035 502.108 -98.0039 450.075 -236.585C401.561 -364.47 259.147 -641.912 259.147 -641.912" stroke="url(#paint2_linear_4142_41321)" stroke-width="0.5" stroke-miterlimit="10"/>
<path d="M1148.67 -27.3175C1180.99 -161.553 495.009 -92.0193 440.542 -232.177C389.895 -362.508 250.216 -639.111 250.216 -639.111" stroke="url(#paint3_linear_4142_41321)" stroke-width="0.5" stroke-miterlimit="10"/>
<path d="M1149.5 -21.5148C1173.58 -151.077 487.672 -85.9297 430.985 -227.733C377.966 -360.437 241.24 -636.21 241.24 -636.21" stroke="url(#paint4_linear_4142_41321)" stroke-width="0.5" stroke-miterlimit="10"/>
<path d="M1150.37 -15.6947C1166.22 -140.576 480.367 -79.8617 421.532 -223.344C366.151 -358.419 232.396 -633.451 232.396 -633.451" stroke="url(#paint5_linear_4142_41321)" stroke-width="0.5" stroke-miterlimit="10"/>
<path d="M1151.16 -9.91477C1158.75 -130.105 472.969 -73.8022 411.967 -218.947C354.197 -356.378 223.417 -630.643 223.417 -630.643" stroke="url(#paint6_linear_4142_41321)" stroke-width="0.5" stroke-miterlimit="10"/>
<path d="M1152 -4.10591C1151.34 -119.623 465.593 -67.7353 402.402 -214.55C342.25 -354.358 214.458 -627.828 214.458 -627.828" stroke="url(#paint7_linear_4142_41321)" stroke-width="0.5" stroke-miterlimit="10"/>
<path d="M1152.83 1.69696C1143.93 -109.146 458.246 -61.6845 392.871 -210.144C330.318 -352.312 205.512 -625.012 205.512 -625.012" stroke="url(#paint8_linear_4142_41321)" stroke-width="0.5" stroke-miterlimit="10"/>
<path d="M1153.67 7.49193C1136.52 -98.6636 450.855 -55.5749 383.381 -205.72C318.432 -350.259 196.627 -622.171 196.627 -622.171" stroke="url(#paint9_linear_4142_41321)" stroke-width="0.5" stroke-miterlimit="10"/>
<path d="M1154.5 13.297C1129.05 -88.2033 443.471 -49.4868 373.859 -201.308C306.488 -348.215 187.69 -619.349 187.69 -619.349" stroke="url(#paint10_linear_4142_41321)" stroke-width="0.5" stroke-miterlimit="10"/>
<path d="M1155.33 19.101C1121.7 -77.7039 436.077 -43.4036 364.327 -196.901C294.563 -346.153 178.764 -616.524 178.764 -616.524" stroke="url(#paint11_linear_4142_41321)" stroke-width="0.5" stroke-miterlimit="10"/>
<path d="M1156.17 24.8983C1114.28 -67.2155 428.684 -37.3202 354.806 -192.49C282.595 -344.106 169.828 -613.703 169.828 -613.703" stroke="url(#paint12_linear_4142_41321)" stroke-width="0.5" stroke-miterlimit="10"/>
<path d="M1157 30.7032C1106.87 -56.7334 421.283 -31.2503 345.259 -188.04C270.644 -341.97 160.873 -610.828 160.873 -610.828" stroke="url(#paint13_linear_4142_41321)" stroke-width="0.5" stroke-miterlimit="10"/>
<path d="M1157.83 36.5075C1099.46 -46.2519 413.877 -25.1349 335.751 -183.671C258.722 -339.99 151.96 -608.045 151.96 -608.045" stroke="url(#paint14_linear_4142_41321)" stroke-width="0.5" stroke-miterlimit="10"/>
<path d="M1158.66 42.3132C1092.04 -35.7727 406.462 -19.0573 326.219 -179.262C246.76 -337.927 143.023 -605.222 143.023 -605.222" stroke="url(#paint15_linear_4142_41321)" stroke-width="0.5" stroke-miterlimit="10"/>
<path d="M1159.5 48.1066C1084.64 -25.2915 399.032 -12.9035 316.697 -174.852C234.796 -335.855 134.097 -602.397 134.097 -602.397" stroke="url(#paint16_linear_4142_41321)" stroke-width="0.5" stroke-miterlimit="10"/>
<path d="M1160.34 53.9144C1077.22 -14.8138 391.624 -6.84854 307.165 -170.444C222.828 -333.808 125.161 -599.576 125.161 -599.576" stroke="url(#paint17_linear_4142_41321)" stroke-width="0.5" stroke-miterlimit="10"/>
<path d="M1161.17 59.7181C1069.81 -4.32234 384.201 -0.751784 297.644 -166.034C210.864 -331.737 116.224 -596.755 116.224 -596.755" stroke="url(#paint18_linear_4142_41321)" stroke-width="0.5" stroke-miterlimit="10"/>
<path d="M1162.01 65.5141C1062.39 6.17896 376.765 5.3549 288.119 -161.645C198.896 -329.688 107.305 -593.949 107.305 -593.949" stroke="url(#paint19_linear_4142_41321)" stroke-width="0.5" stroke-miterlimit="10"/>
<path d="M1162.84 71.3182C1054.95 16.6281 369.338 11.4627 278.589 -157.213C186.912 -327.598 98.3601 -591.107 98.3601 -591.107" stroke="url(#paint20_linear_4142_41321)" stroke-width="0.5" stroke-miterlimit="10"/>
<path d="M1163.68 77.1248C1047.57 27.1155 361.945 17.5803 269.058 -152.807C174.928 -325.535 89.4353 -588.283 89.4353 -588.283" stroke="url(#paint21_linear_4142_41321)" stroke-width="0.5" stroke-miterlimit="10"/>
<path d="M1164.51 82.9299C1040.15 37.5941 354.465 23.6709 259.557 -148.388C162.969 -323.448 80.5193 -585.454 80.5193 -585.454" stroke="url(#paint22_linear_4142_41321)" stroke-width="0.5" stroke-miterlimit="10"/>
<path d="M1165.32 88.7178C1032.74 48.0735 347.003 29.78 249.982 -143.994C150.937 -321.386 71.5396 -582.646 71.5396 -582.646" stroke="url(#paint23_linear_4142_41321)" stroke-width="0.5" stroke-miterlimit="10"/>
<path d="M1166.17 94.5304C1025.34 58.5702 339.577 35.8891 240.482 -139.574C138.969 -319.302 62.6348 -579.812 62.6348 -579.812" stroke="url(#paint24_linear_4142_41321)" stroke-width="0.5" stroke-miterlimit="10"/>
<path d="M1167 100.333C1017.94 69.0073 332.136 42.002 230.949 -135.169C126.975 -317.219 53.719 -576.985 53.719 -576.985" stroke="url(#paint25_linear_4142_41321)" stroke-width="0.5" stroke-miterlimit="10"/>
<path d="M1167.85 106.131C1010.51 79.5287 324.681 48.125 221.424 -130.746C114.975 -315.146 44.75 -574.174 44.75 -574.174" stroke="url(#paint26_linear_4142_41321)" stroke-width="0.5" stroke-miterlimit="10"/>
<path d="M1168.68 111.935C1003.11 90.0101 317.23 54.2362 211.892 -126.339C102.982 -313.06 35.835 -571.345 35.835 -571.345" stroke="url(#paint27_linear_4142_41321)" stroke-width="0.5" stroke-miterlimit="10"/>
<path d="M1169.53 117.748C995.711 100.496 309.783 60.4089 202.392 -121.919C90.9995 -310.97 26.9304 -568.512 26.9304 -568.512" stroke="url(#paint28_linear_4142_41321)" stroke-width="0.5" stroke-miterlimit="10"/>
<path d="M1170.34 123.533C988.284 110.969 302.326 66.469 192.818 -117.528C78.954 -308.904 17.9517 -565.707 17.9517 -565.707" stroke="url(#paint29_linear_4142_41321)" stroke-width="0.5" stroke-miterlimit="10"/>
<path d="M1171.17 129.338C980.862 121.458 294.902 72.6027 183.317 -113.109C66.9667 -306.803 9.0354 -562.877 9.0354 -562.877" stroke="url(#paint30_linear_4142_41321)" stroke-width="0.5" stroke-miterlimit="10"/>
<path d="M1172.01 135.147C973.455 131.941 287.404 78.7111 173.784 -108.7C54.9583 -304.709 0.108398 -560.051 0.108398 -560.051" stroke="url(#paint31_linear_4142_41321)" stroke-width="0.5" stroke-miterlimit="10"/>
<path d="M1172.85 140.952C966.049 142.423 279.946 84.8438 164.255 -104.268C42.9225 -302.602 -8.83569 -557.208 -8.83569 -557.208" stroke="url(#paint32_linear_4142_41321)" stroke-width="0.5" stroke-miterlimit="10"/>
<path d="M1173.68 146.747C958.631 152.902 272.476 90.9745 154.729 -99.8796C30.9424 -300.521 -17.7556 -554.402 -17.7556 -554.402" stroke="url(#paint33_linear_4142_41321)" stroke-width="0.5" stroke-miterlimit="10"/>
<path d="M1174.51 152.55C951.246 163.389 265.021 97.0948 145.208 -95.4701C18.9248 -298.434 -26.6919 -551.583 -26.6919 -551.583" stroke="url(#paint34_linear_4142_41321)" stroke-width="0.5" stroke-miterlimit="10"/>
<path d="M1175.35 158.359C943.808 173.861 257.553 103.225 135.676 -91.0613C6.91779 -296.34 -35.6282 -548.76 -35.6282 -548.76" stroke="url(#paint35_linear_4142_41321)" stroke-width="0.5" stroke-miterlimit="10"/>
<path d="M1176.19 164.153C936.398 184.353 250.084 109.354 126.155 -86.6506C-5.10386 -294.24 -44.5542 -545.935 -44.5542 -545.935" stroke="url(#paint36_linear_4142_41321)" stroke-width="0.5" stroke-miterlimit="10"/>
<path d="M1177.02 169.958C928.98 194.832 242.614 115.483 116.622 -82.2423C-17.0974 -292.189 -53.4919 -543.113 -53.4919 -543.113" stroke="url(#paint37_linear_4142_41321)" stroke-width="0.5" stroke-miterlimit="10"/>
<path d="M1177.85 175.763C921.575 205.314 235.146 121.613 107.116 -77.8731C-29.122 -290.078 -62.4026 -540.33 -62.4026 -540.33" stroke="url(#paint38_linear_4142_41321)" stroke-width="0.5" stroke-miterlimit="10"/>
<path d="M1178.68 181.566C914.116 215.776 227.674 127.751 97.569 -73.4241C-41.1582 -287.937 -71.3574 -537.456 -71.3574 -537.456" stroke="url(#paint39_linear_4142_41321)" stroke-width="0.5" stroke-miterlimit="10"/>
<path d="M1179.52 187.365C906.751 226.274 220.247 133.896 88.0471 -69.0116C-53.1802 -285.836 -80.2944 -534.633 -80.2944 -534.633" stroke="url(#paint40_linear_4142_41321)" stroke-width="0.5" stroke-miterlimit="10"/>
<path d="M1180.35 193.168C899.334 236.751 212.732 140.02 78.5146 -64.6051C-65.206 -283.727 -89.2209 -531.809 -89.2209 -531.809" stroke="url(#paint41_linear_4142_41321)" stroke-width="0.5" stroke-miterlimit="10"/>
<path d="M1181.18 198.972C891.924 247.243 205.259 146.159 68.993 -60.1941C-77.2424 -281.585 -98.1577 -528.988 -98.1577 -528.988" stroke="url(#paint42_linear_4142_41321)" stroke-width="0.5" stroke-miterlimit="10"/>
<path d="M1182.02 204.766C884.518 257.724 197.394 152.542 59.4614 -55.7869C-89.667 -279.245 -107.083 -526.163 -107.083 -526.163" stroke="url(#paint43_linear_4142_41321)" stroke-width="0.5" stroke-miterlimit="10"/>
<path d="M1182.85 210.571C877.1 268.203 189.978 158.655 49.971 -51.3638C-101.615 -277.154 -115.989 -523.33 -115.989 -523.33" stroke="url(#paint44_linear_4142_41321)" stroke-width="0.5" stroke-miterlimit="10"/>
<path d="M1183.69 216.38C869.693 278.685 182.537 164.771 40.4062 -46.9664C-113.626 -275.085 -124.948 -520.515 -124.948 -520.515" stroke="url(#paint45_linear_4142_41321)" stroke-width="0.5" stroke-miterlimit="10"/>
<path d="M1184.48 222.16C862.322 289.133 175.11 170.881 30.8843 -42.5539C-125.627 -273.012 -133.885 -517.692 -133.885 -517.692" stroke="url(#paint46_linear_4142_41321)" stroke-width="0.5" stroke-miterlimit="10"/>
<path d="M1185.35 227.978C854.882 299.612 167.686 176.987 21.3897 -38.1834C-137.558 -270.967 -142.769 -514.95 -142.769 -514.95" stroke="url(#paint47_linear_4142_41321)" stroke-width="0.5" stroke-miterlimit="10"/>
<path d="M1186.18 233.783C847.438 310.165 160.244 183.103 11.8308 -33.7359C-149.574 -268.851 -151.747 -512.046 -151.747 -512.046" stroke="url(#paint48_linear_4142_41321)" stroke-width="0.5" stroke-miterlimit="10"/>
<path d="M1187.03 239.59C840.05 320.593 152.85 189.221 2.30667 -29.3508C-161.545 -266.795 -160.669 -509.268 -160.669 -509.268" stroke="url(#paint49_linear_4142_41321)" stroke-width="0.5" stroke-miterlimit="10"/>
<path d="M1187.86 245.385C832.625 331.093 145.377 195.327 -7.22332 -24.9169C-173.564 -264.704 -169.568 -506.384 -169.568 -506.384" stroke="url(#paint50_linear_4142_41321)" stroke-width="0.5" stroke-miterlimit="10"/>
<path d="M1188.69 251.189C825.218 341.574 137.951 201.434 -16.7556 -20.51C-185.522 -262.618 -178.548 -503.578 -178.548 -503.578" stroke="url(#paint51_linear_4142_41321)" stroke-width="0.5" stroke-miterlimit="10"/>
</g>
</g>
<defs>
<linearGradient id="paint0_linear_4142_41321" x1="338.199" y1="-700.754" x2="1009.97" y2="73.5542" gradientUnits="userSpaceOnUse">
<stop stop-color="#EB6F31"/>
<stop offset="1" stop-color="#113E8E"/>
</linearGradient>
<linearGradient id="paint1_linear_4142_41321" x1="2.22812e+06" y1="1.24256e+06" x2="2.3828e+06" y2="1.89871e+06" gradientUnits="userSpaceOnUse">
<stop stop-color="#EB6F31"/>
<stop offset="1" stop-color="#113E8E"/>
</linearGradient>
<linearGradient id="paint2_linear_4142_41321" x1="2.24577e+06" y1="1.25771e+06" x2="2.39744e+06" y2="1.9227e+06" gradientUnits="userSpaceOnUse">
<stop stop-color="#EB6F31"/>
<stop offset="1" stop-color="#113E8E"/>
</linearGradient>
<linearGradient id="paint3_linear_4142_41321" x1="2.26583e+06" y1="1.25345e+06" x2="2.41866e+06" y2="1.92429e+06" gradientUnits="userSpaceOnUse">
<stop stop-color="#EB6F31"/>
<stop offset="1" stop-color="#113E8E"/>
</linearGradient>
<linearGradient id="paint4_linear_4142_41321" x1="2.28827e+06" y1="1.25967e+06" x2="2.44058e+06" y2="1.93864e+06" gradientUnits="userSpaceOnUse">
<stop stop-color="#EB6F31"/>
<stop offset="1" stop-color="#113E8E"/>
</linearGradient>
<linearGradient id="paint5_linear_4142_41321" x1="2.31662e+06" y1="1.25373e+06" x2="2.47204e+06" y2="1.94003e+06" gradientUnits="userSpaceOnUse">
<stop stop-color="#EB6F31"/>
<stop offset="1" stop-color="#113E8E"/>
</linearGradient>
<linearGradient id="paint6_linear_4142_41321" x1="2.33285e+06" y1="1.27152e+06" x2="2.48441e+06" y2="1.96685e+06" gradientUnits="userSpaceOnUse">
<stop stop-color="#EB6F31"/>
<stop offset="1" stop-color="#113E8E"/>
</linearGradient>
<linearGradient id="paint7_linear_4142_41321" x1="2.35514e+06" y1="1.27722e+06" x2="2.50631e+06" y2="1.98068e+06" gradientUnits="userSpaceOnUse">
<stop stop-color="#EB6F31"/>
<stop offset="1" stop-color="#113E8E"/>
</linearGradient>
<linearGradient id="paint8_linear_4142_41321" x1="2.37733e+06" y1="1.28272e+06" x2="2.52813e+06" y2="1.99426e+06" gradientUnits="userSpaceOnUse">
<stop stop-color="#EB6F31"/>
<stop offset="1" stop-color="#113E8E"/>
</linearGradient>
<linearGradient id="paint9_linear_4142_41321" x1="2.39929e+06" y1="1.28795e+06" x2="2.5498e+06" y2="2.00758e+06" gradientUnits="userSpaceOnUse">
<stop stop-color="#EB6F31"/>
<stop offset="1" stop-color="#113E8E"/>
</linearGradient>
<linearGradient id="paint10_linear_4142_41321" x1="2.42133e+06" y1="1.29308e+06" x2="2.57155e+06" y2="2.02077e+06" gradientUnits="userSpaceOnUse">
<stop stop-color="#EB6F31"/>
<stop offset="1" stop-color="#113E8E"/>
</linearGradient>
<linearGradient id="paint11_linear_4142_41321" x1="2.43899e+06" y1="1.28979e+06" x2="2.58993e+06" y2="2.02321e+06" gradientUnits="userSpaceOnUse">
<stop stop-color="#EB6F31"/>
<stop offset="1" stop-color="#113E8E"/>
</linearGradient>
<linearGradient id="paint12_linear_4142_41321" x1="2.46519e+06" y1="1.30277e+06" x2="2.61493e+06" y2="2.04654e+06" gradientUnits="userSpaceOnUse">
<stop stop-color="#EB6F31"/>
<stop offset="1" stop-color="#113E8E"/>
</linearGradient>
<linearGradient id="paint13_linear_4142_41321" x1="2.48704e+06" y1="1.30735e+06" x2="2.63655e+06" y2="2.05907e+06" gradientUnits="userSpaceOnUse">
<stop stop-color="#EB6F31"/>
<stop offset="1" stop-color="#113E8E"/>
</linearGradient>
<linearGradient id="paint14_linear_4142_41321" x1="2.50902e+06" y1="1.3113e+06" x2="2.65855e+06" y2="2.07104e+06" gradientUnits="userSpaceOnUse">
<stop stop-color="#EB6F31"/>
<stop offset="1" stop-color="#113E8E"/>
</linearGradient>
<linearGradient id="paint15_linear_4142_41321" x1="2.516e+06" y1="1.3196e+06" x2="2.66204e+06" y2="2.08488e+06" gradientUnits="userSpaceOnUse">
<stop stop-color="#EB6F31"/>
<stop offset="1" stop-color="#113E8E"/>
</linearGradient>
<linearGradient id="paint16_linear_4142_41321" x1="2.54292e+06" y1="1.30667e+06" x2="2.6935e+06" y2="2.07821e+06" gradientUnits="userSpaceOnUse">
<stop stop-color="#EB6F31"/>
<stop offset="1" stop-color="#113E8E"/>
</linearGradient>
<linearGradient id="paint17_linear_4142_41321" x1="2.57388e+06" y1="1.32341e+06" x2="2.72324e+06" y2="2.10714e+06" gradientUnits="userSpaceOnUse">
<stop stop-color="#EB6F31"/>
<stop offset="1" stop-color="#113E8E"/>
</linearGradient>
<linearGradient id="paint18_linear_4142_41321" x1="2.59526e+06" y1="1.32711e+06" x2="2.74464e+06" y2="2.11883e+06" gradientUnits="userSpaceOnUse">
<stop stop-color="#EB6F31"/>
<stop offset="1" stop-color="#113E8E"/>
</linearGradient>
<linearGradient id="paint19_linear_4142_41321" x1="2.61648e+06" y1="1.33064e+06" x2="2.76596e+06" y2="2.13034e+06" gradientUnits="userSpaceOnUse">
<stop stop-color="#EB6F31"/>
<stop offset="1" stop-color="#113E8E"/>
</linearGradient>
<linearGradient id="paint20_linear_4142_41321" x1="2.6376e+06" y1="1.334e+06" x2="2.78717e+06" y2="2.14165e+06" gradientUnits="userSpaceOnUse">
<stop stop-color="#EB6F31"/>
<stop offset="1" stop-color="#113E8E"/>
</linearGradient>
<linearGradient id="paint21_linear_4142_41321" x1="2.65881e+06" y1="1.33674e+06" x2="2.80868e+06" y2="2.15234e+06" gradientUnits="userSpaceOnUse">
<stop stop-color="#EB6F31"/>
<stop offset="1" stop-color="#113E8E"/>
</linearGradient>
<linearGradient id="paint22_linear_4142_41321" x1="2.6796e+06" y1="1.33975e+06" x2="2.82969e+06" y2="2.1633e+06" gradientUnits="userSpaceOnUse">
<stop stop-color="#EB6F31"/>
<stop offset="1" stop-color="#113E8E"/>
</linearGradient>
<linearGradient id="paint23_linear_4142_41321" x1="2.67595e+06" y1="1.3457e+06" x2="2.82153e+06" y2="2.17226e+06" gradientUnits="userSpaceOnUse">
<stop stop-color="#EB6F31"/>
<stop offset="1" stop-color="#113E8E"/>
</linearGradient>
<linearGradient id="paint24_linear_4142_41321" x1="2.72086e+06" y1="1.34534e+06" x2="2.87151e+06" y2="2.18482e+06" gradientUnits="userSpaceOnUse">
<stop stop-color="#EB6F31"/>
<stop offset="1" stop-color="#113E8E"/>
</linearGradient>
<linearGradient id="paint25_linear_4142_41321" x1="2.71764e+06" y1="1.34362e+06" x2="2.86568e+06" y2="2.18497e+06" gradientUnits="userSpaceOnUse">
<stop stop-color="#EB6F31"/>
<stop offset="1" stop-color="#113E8E"/>
</linearGradient>
<linearGradient id="paint26_linear_4142_41321" x1="2.74432e+06" y1="1.32815e+06" x2="2.89795e+06" y2="2.17594e+06" gradientUnits="userSpaceOnUse">
<stop stop-color="#EB6F31"/>
<stop offset="1" stop-color="#113E8E"/>
</linearGradient>
<linearGradient id="paint27_linear_4142_41321" x1="2.78181e+06" y1="1.35204e+06" x2="2.93385e+06" y2="2.21536e+06" gradientUnits="userSpaceOnUse">
<stop stop-color="#EB6F31"/>
<stop offset="1" stop-color="#113E8E"/>
</linearGradient>
<linearGradient id="paint28_linear_4142_41321" x1="2.7736e+06" y1="1.35358e+06" x2="2.92165e+06" y2="2.21835e+06" gradientUnits="userSpaceOnUse">
<stop stop-color="#EB6F31"/>
<stop offset="1" stop-color="#113E8E"/>
</linearGradient>
<linearGradient id="paint29_linear_4142_41321" x1="2.80009e+06" y1="1.33738e+06" x2="2.95398e+06" y2="2.20859e+06" gradientUnits="userSpaceOnUse">
<stop stop-color="#EB6F31"/>
<stop offset="1" stop-color="#113E8E"/>
</linearGradient>
<linearGradient id="paint30_linear_4142_41321" x1="2.84104e+06" y1="1.35777e+06" x2="2.99481e+06" y2="2.24501e+06" gradientUnits="userSpaceOnUse">
<stop stop-color="#EB6F31"/>
<stop offset="1" stop-color="#113E8E"/>
</linearGradient>
<linearGradient id="paint31_linear_4142_41321" x1="2.86046e+06" y1="1.35938e+06" x2="3.0149e+06" y2="2.25459e+06" gradientUnits="userSpaceOnUse">
<stop stop-color="#EB6F31"/>
<stop offset="1" stop-color="#113E8E"/>
</linearGradient>
<linearGradient id="paint32_linear_4142_41321" x1="2.87995e+06" y1="1.36033e+06" x2="3.03527e+06" y2="2.26348e+06" gradientUnits="userSpaceOnUse">
<stop stop-color="#EB6F31"/>
<stop offset="1" stop-color="#113E8E"/>
</linearGradient>
<linearGradient id="paint33_linear_4142_41321" x1="2.89899e+06" y1="1.36163e+06" x2="3.05512e+06" y2="2.27279e+06" gradientUnits="userSpaceOnUse">
<stop stop-color="#EB6F31"/>
<stop offset="1" stop-color="#113E8E"/>
</linearGradient>
<linearGradient id="paint34_linear_4142_41321" x1="2.91789e+06" y1="1.36278e+06" x2="3.07486e+06" y2="2.28193e+06" gradientUnits="userSpaceOnUse">
<stop stop-color="#EB6F31"/>
<stop offset="1" stop-color="#113E8E"/>
</linearGradient>
<linearGradient id="paint35_linear_4142_41321" x1="2.93662e+06" y1="1.36379e+06" x2="3.09449e+06" y2="2.29095e+06" gradientUnits="userSpaceOnUse">
<stop stop-color="#EB6F31"/>
<stop offset="1" stop-color="#113E8E"/>
</linearGradient>
<linearGradient id="paint36_linear_4142_41321" x1="2.95075e+06" y1="1.37755e+06" x2="3.10575e+06" y2="2.31379e+06" gradientUnits="userSpaceOnUse">
<stop stop-color="#EB6F31"/>
<stop offset="1" stop-color="#113E8E"/>
</linearGradient>
<linearGradient id="paint37_linear_4142_41321" x1="2.97347e+06" y1="1.36535e+06" x2="3.1333e+06" y2="2.30853e+06" gradientUnits="userSpaceOnUse">
<stop stop-color="#EB6F31"/>
<stop offset="1" stop-color="#113E8E"/>
</linearGradient>
<linearGradient id="paint38_linear_4142_41321" x1="2.9916e+06" y1="1.36592e+06" x2="3.15253e+06" y2="2.31716e+06" gradientUnits="userSpaceOnUse">
<stop stop-color="#EB6F31"/>
<stop offset="1" stop-color="#113E8E"/>
</linearGradient>
<linearGradient id="paint39_linear_4142_41321" x1="3.0156e+06" y1="1.3534e+06" x2="3.18176e+06" y2="2.31196e+06" gradientUnits="userSpaceOnUse">
<stop stop-color="#EB6F31"/>
<stop offset="1" stop-color="#113E8E"/>
</linearGradient>
<linearGradient id="paint40_linear_4142_41321" x1="3.02816e+06" y1="1.36526e+06" x2="3.19181e+06" y2="2.33249e+06" gradientUnits="userSpaceOnUse">
<stop stop-color="#EB6F31"/>
<stop offset="1" stop-color="#113E8E"/>
</linearGradient>
<linearGradient id="paint41_linear_4142_41321" x1="3.04045e+06" y1="1.37709e+06" x2="3.20159e+06" y2="2.35298e+06" gradientUnits="userSpaceOnUse">
<stop stop-color="#EB6F31"/>
<stop offset="1" stop-color="#113E8E"/>
</linearGradient>
<linearGradient id="paint42_linear_4142_41321" x1="3.06253e+06" y1="1.36624e+06" x2="3.22842e+06" y2="2.34957e+06" gradientUnits="userSpaceOnUse">
<stop stop-color="#EB6F31"/>
<stop offset="1" stop-color="#113E8E"/>
</linearGradient>
<linearGradient id="paint43_linear_4142_41321" x1="3.07965e+06" y1="1.3662e+06" x2="3.24707e+06" y2="2.35784e+06" gradientUnits="userSpaceOnUse">
<stop stop-color="#EB6F31"/>
<stop offset="1" stop-color="#113E8E"/>
</linearGradient>
<linearGradient id="paint44_linear_4142_41321" x1="3.09655e+06" y1="1.3659e+06" x2="3.26536e+06" y2="2.36556e+06" gradientUnits="userSpaceOnUse">
<stop stop-color="#EB6F31"/>
<stop offset="1" stop-color="#113E8E"/>
</linearGradient>
<linearGradient id="paint45_linear_4142_41321" x1="3.11506e+06" y1="1.36216e+06" x2="3.28641e+06" y2="2.36974e+06" gradientUnits="userSpaceOnUse">
<stop stop-color="#EB6F31"/>
<stop offset="1" stop-color="#113E8E"/>
</linearGradient>
<linearGradient id="paint46_linear_4142_41321" x1="3.12988e+06" y1="1.36494e+06" x2="3.30161e+06" y2="2.38069e+06" gradientUnits="userSpaceOnUse">
<stop stop-color="#EB6F31"/>
<stop offset="1" stop-color="#113E8E"/>
</linearGradient>
<linearGradient id="paint47_linear_4142_41321" x1="3.15156e+06" y1="1.35383e+06" x2="3.32844e+06" y2="2.37737e+06" gradientUnits="userSpaceOnUse">
<stop stop-color="#EB6F31"/>
<stop offset="1" stop-color="#113E8E"/>
</linearGradient>
<linearGradient id="paint48_linear_4142_41321" x1="3.16248e+06" y1="1.3635e+06" x2="3.33735e+06" y2="2.39541e+06" gradientUnits="userSpaceOnUse">
<stop stop-color="#EB6F31"/>
<stop offset="1" stop-color="#113E8E"/>
</linearGradient>
<linearGradient id="paint49_linear_4142_41321" x1="3.17323e+06" y1="1.37641e+06" x2="3.34537e+06" y2="2.41738e+06" gradientUnits="userSpaceOnUse">
<stop stop-color="#EB6F31"/>
<stop offset="1" stop-color="#113E8E"/>
</linearGradient>
<linearGradient id="paint50_linear_4142_41321" x1="3.19405e+06" y1="1.36147e+06" x2="3.37228e+06" y2="2.4095e+06" gradientUnits="userSpaceOnUse">
<stop stop-color="#EB6F31"/>
<stop offset="1" stop-color="#113E8E"/>
</linearGradient>
<linearGradient id="paint51_linear_4142_41321" x1="3.20967e+06" y1="1.36032e+06" x2="3.38965e+06" y2="2.41644e+06" gradientUnits="userSpaceOnUse">
<stop stop-color="#EB6F31"/>
<stop offset="1" stop-color="#113E8E"/>
</linearGradient>
<clipPath id="clip0_4142_41321">
<rect width="516" height="320" fill="white"/>
</clipPath>
<clipPath id="clip1_4142_41321">
<rect width="1539" height="769.78" fill="white" transform="translate(-85.6318 -773) rotate(19.0592)"/>
</clipPath>
</defs>
</svg>
