<svg width="202" height="2" viewBox="0 0 202 2" fill="none" xmlns="http://www.w3.org/2000/svg">
<path d="M1 0C0.447715 0 0 0.447715 0 1C0 1.55228 0.447715 2 1 2V0ZM201 2C201.552 2 202 1.55228 202 1C202 0.447715 201.552 0 201 0V2ZM4.84615 2C5.39844 2 5.84615 1.55228 5.84615 1C5.84615 0.447715 5.39844 0 4.84615 0V2ZM12.5385 0C11.9862 0 11.5385 0.447715 11.5385 1C11.5385 1.55228 11.9862 2 12.5385 2V0ZM20.2308 2C20.7831 2 21.2308 1.55228 21.2308 1C21.2308 0.447715 20.7831 0 20.2308 0V2ZM27.9231 0C27.3708 0 26.9231 0.447715 26.9231 1C26.9231 1.55228 27.3708 2 27.9231 2V0ZM35.6154 2C36.1677 2 36.6154 1.55228 36.6154 1C36.6154 0.447715 36.1677 0 35.6154 0V2ZM43.3077 0C42.7554 0 42.3077 0.447715 42.3077 1C42.3077 1.55228 42.7554 2 43.3077 2V0ZM51 2C51.5523 2 52 1.55228 52 1C52 0.447715 51.5523 0 51 0V2ZM58.6923 0C58.14 0 57.6923 0.447715 57.6923 1C57.6923 1.55228 58.14 2 58.6923 2V0ZM66.3846 2C66.9369 2 67.3846 1.55228 67.3846 1C67.3846 0.447715 66.9369 0 66.3846 0V2ZM74.0769 0C73.5246 0 73.0769 0.447715 73.0769 1C73.0769 1.55228 73.5246 2 74.0769 2V0ZM81.7692 2C82.3215 2 82.7692 1.55228 82.7692 1C82.7692 0.447715 82.3215 0 81.7692 0V2ZM89.4615 0C88.9092 0 88.4615 0.447715 88.4615 1C88.4615 1.55228 88.9092 2 89.4615 2V0ZM97.1538 2C97.7061 2 98.1538 1.55228 98.1538 1C98.1538 0.447715 97.7061 0 97.1538 0V2ZM104.846 0C104.294 0 103.846 0.447715 103.846 1C103.846 1.55228 104.294 2 104.846 2V0ZM112.538 2C113.091 2 113.538 1.55228 113.538 1C113.538 0.447715 113.091 0 112.538 0V2ZM120.231 0C119.678 0 119.231 0.447715 119.231 1C119.231 1.55228 119.678 2 120.231 2V0ZM127.923 2C128.475 2 128.923 1.55228 128.923 1C128.923 0.447715 128.475 0 127.923 0V2ZM135.615 0C135.063 0 134.615 0.447715 134.615 1C134.615 1.55228 135.063 2 135.615 2V0ZM143.308 2C143.86 2 144.308 1.55228 144.308 1C144.308 0.447715 143.86 0 143.308 0V2ZM151 0C150.448 0 150 0.447715 150 1C150 1.55228 150.448 2 151 2V0ZM158.692 2C159.245 2 159.692 1.55228 159.692 1C159.692 0.447715 159.245 0 158.692 0V2ZM166.385 0C165.832 0 165.385 0.447715 165.385 1C165.385 1.55228 165.832 2 166.385 2V0ZM174.077 2C174.629 2 175.077 1.55228 175.077 1C175.077 0.447715 174.629 0 174.077 0V2ZM181.769 0C181.217 0 180.769 0.447715 180.769 1C180.769 1.55228 181.217 2 181.769 2V0ZM189.462 2C190.014 2 190.462 1.55228 190.462 1C190.462 0.447715 190.014 0 189.462 0V2ZM197.154 0C196.602 0 196.154 0.447715 196.154 1C196.154 1.55228 196.602 2 197.154 2V0ZM1 2H4.84615V0H1V2ZM12.5385 2H20.2308V0H12.5385V2ZM27.9231 2H35.6154V0H27.9231V2ZM43.3077 2H51V0H43.3077V2ZM58.6923 2H66.3846V0H58.6923V2ZM74.0769 2H81.7692V0H74.0769V2ZM89.4615 2H97.1538V0H89.4615V2ZM104.846 2H112.538V0H104.846V2ZM120.231 2H127.923V0H120.231V2ZM135.615 2H143.308V0H135.615V2ZM151 2H158.692V0H151V2ZM166.385 2H174.077V0H166.385V2ZM181.769 2H189.462V0H181.769V2ZM197.154 2H201V0H197.154V2Z" fill="#E7E7F3"/>
</svg>
