<svg width="240" height="263" viewBox="0 0 240 263" fill="none" xmlns="http://www.w3.org/2000/svg">
<g clip-path="url(#clip0_4143_46417)">
<g clip-path="url(#clip1_4143_46417)">
<path d="M624.133 562.751C659.675 373.217 637.916 169.67 551.102 18.8025C471.969 -118.714 252.152 -515.375 252.152 -515.375" stroke="url(#paint0_linear_4143_46417)" stroke-width="0.360075" stroke-miterlimit="10"/>
<path d="M619.131 562.419C654.37 374.064 632.967 174.427 547.812 24.1552C468.52 -115.671 241.748 -507.15 241.748 -507.15" stroke="url(#paint1_linear_4143_46417)" stroke-width="0.360075" stroke-miterlimit="10"/>
<path d="M614.139 562.102C649.048 374.922 628.069 179.026 544.505 29.5191C465.036 -112.674 231.356 -498.924 231.356 -498.924" stroke="url(#paint2_linear_4143_46417)" stroke-width="0.360075" stroke-miterlimit="10"/>
<path d="M609.136 561.77C643.74 375.783 623.191 183.683 541.215 34.8715C461.6 -109.63 220.954 -490.713 220.954 -490.713" stroke="url(#paint3_linear_4143_46417)" stroke-width="0.360075" stroke-miterlimit="10"/>
<path d="M604.133 561.437C638.434 376.63 618.343 188.317 537.908 40.2351C458.154 -106.614 210.549 -482.489 210.549 -482.489" stroke="url(#paint4_linear_4143_46417)" stroke-width="0.360075" stroke-miterlimit="10"/>
<path d="M599.142 561.12C633.113 377.488 613.514 192.913 534.617 45.5877C454.712 -103.625 200.144 -474.264 200.144 -474.264" stroke="url(#paint5_linear_4143_46417)" stroke-width="0.360075" stroke-miterlimit="10"/>
<path d="M594.139 560.787C627.806 378.348 608.711 197.526 531.325 50.9532C451.287 -100.648 189.753 -466.038 189.753 -466.038" stroke="url(#paint6_linear_4143_46417)" stroke-width="0.360075" stroke-miterlimit="10"/>
<path d="M589.136 560.469C622.499 379.209 603.926 202.115 527.968 56.2959C447.81 -97.6921 179.306 -457.889 179.306 -457.889" stroke="url(#paint7_linear_4143_46417)" stroke-width="0.360075" stroke-miterlimit="10"/>
<path d="M584.146 560.138C617.18 380.054 599.158 206.678 524.729 61.6696C444.451 -94.7048 168.947 -449.603 168.947 -449.603" stroke="url(#paint8_linear_4143_46417)" stroke-width="0.360075" stroke-miterlimit="10"/>
<path d="M579.143 559.806C611.804 380.904 594.418 211.233 521.424 67.0202C441.058 -91.7636 158.555 -441.376 158.555 -441.376" stroke="url(#paint9_linear_4143_46417)" stroke-width="0.360075" stroke-miterlimit="10"/>
<path d="M574.138 559.487C606.617 381.783 589.708 215.777 518.131 72.3857C437.665 -88.8228 148.15 -433.152 148.15 -433.152" stroke="url(#paint10_linear_4143_46417)" stroke-width="0.360075" stroke-miterlimit="10"/>
<path d="M569.148 559.156C601.242 382.633 585.014 220.297 514.839 77.7381C434.284 -85.8797 137.747 -424.941 137.747 -424.941" stroke="url(#paint11_linear_4143_46417)" stroke-width="0.360075" stroke-miterlimit="10"/>
<path d="M564.146 558.824C595.937 383.48 580.336 224.819 511.534 83.1021C430.924 -82.9613 127.357 -416.714 127.357 -416.714" stroke="url(#paint12_linear_4143_46417)" stroke-width="0.360075" stroke-miterlimit="10"/>
<path d="M559.141 558.505C590.637 384.287 575.673 229.317 508.243 88.4546C427.577 -80.0544 116.897 -408.498 116.897 -408.498" stroke="url(#paint13_linear_4143_46417)" stroke-width="0.360075" stroke-miterlimit="10"/>
<path d="M554.151 558.174C585.307 385.199 571.027 233.802 504.949 93.8204C424.23 -77.1477 106.546 -400.266 106.546 -400.266" stroke="url(#paint14_linear_4143_46417)" stroke-width="0.360075" stroke-miterlimit="10"/>
<path d="M549.146 557.855C579.999 386.06 566.409 238.279 501.645 99.1707C420.888 -74.185 96.1435 -392.055 96.1435 -392.055" stroke="url(#paint15_linear_4143_46417)" stroke-width="0.360075" stroke-miterlimit="10"/>
<path d="M544.148 557.496C574.698 386.879 561.81 242.73 498.357 104.509C417.655 -71.3853 85.7566 -383.855 85.7566 -383.855" stroke="url(#paint16_linear_4143_46417)" stroke-width="0.360075" stroke-miterlimit="10"/>
<path d="M539.154 557.192C569.385 387.767 557.216 247.224 495.047 109.887C414.269 -68.4979 75.3468 -375.604 75.3468 -375.604" stroke="url(#paint17_linear_4143_46417)" stroke-width="0.360075" stroke-miterlimit="10"/>
<path d="M534.15 556.874C564.066 388.626 552.647 251.666 491.756 115.253C411.081 -65.6222 64.9437 -367.379 64.9437 -367.379" stroke="url(#paint18_linear_4143_46417)" stroke-width="0.360075" stroke-miterlimit="10"/>
<path d="M529.14 556.595C558.75 389.54 548.095 256.166 488.457 120.659C407.734 -62.7155 54.5713 -359.095 54.5713 -359.095" stroke="url(#paint19_linear_4143_46417)" stroke-width="0.360075" stroke-miterlimit="10"/>
<path d="M524.159 556.211C553.466 390.335 543.562 260.545 485.16 125.969C404.499 -59.9018 44.1504 -350.942 44.1504 -350.942" stroke="url(#paint20_linear_4143_46417)" stroke-width="0.360075" stroke-miterlimit="10"/>
<path d="M519.152 555.892C548.129 391.191 539.031 264.98 481.867 131.321C401.261 -57.0886 33.7437 -342.718 33.7437 -342.718" stroke="url(#paint21_linear_4143_46417)" stroke-width="0.360075" stroke-miterlimit="10"/>
<path d="M514.149 555.559C542.822 392.052 534.532 269.405 478.588 136.689C398.077 -54.2536 23.3619 -334.462 23.3619 -334.462" stroke="url(#paint22_linear_4143_46417)" stroke-width="0.360075" stroke-miterlimit="10"/>
<path d="M509.158 555.242C537.51 392.939 530.035 273.817 475.27 142.037C394.855 -51.4382 12.9479 -326.267 12.9479 -326.267" stroke="url(#paint23_linear_4143_46417)" stroke-width="0.360075" stroke-miterlimit="10"/>
<path d="M504.156 554.909C532.195 393.757 525.499 278.209 471.977 147.403C391.675 -48.63 2.54541 -318.056 2.54541 -318.056" stroke="url(#paint24_linear_4143_46417)" stroke-width="0.360075" stroke-miterlimit="10"/>
<path d="M499.153 554.577C526.887 394.618 521.152 282.631 468.673 152.754C388.52 -45.804 -7.8595 -309.832 -7.8595 -309.832" stroke="url(#paint25_linear_4143_46417)" stroke-width="0.360075" stroke-miterlimit="10"/>
<path d="M494.162 554.26C521.58 395.478 516.643 287.027 465.38 158.119C385.384 -43.017 -18.2505 -301.605 -18.2505 -301.605" stroke="url(#paint26_linear_4143_46417)" stroke-width="0.360075" stroke-miterlimit="10"/>
<path d="M489.159 553.928C516.26 396.323 512.206 291.407 462.076 163.47C382.264 -40.2408 -28.6553 -293.381 -28.6553 -293.381" stroke="url(#paint27_linear_4143_46417)" stroke-width="0.360075" stroke-miterlimit="10"/>
<path d="M484.156 553.595C510.953 397.184 507.78 295.802 458.783 168.836C379.161 -37.3935 -39.0579 -285.17 -39.0579 -285.17" stroke="url(#paint28_linear_4143_46417)" stroke-width="0.360075" stroke-miterlimit="10"/>
<path d="M479.164 553.278C505.644 398.044 503.368 300.186 455.465 174.184C376.077 -34.6808 -49.4728 -276.975 -49.4728 -276.975" stroke="url(#paint29_linear_4143_46417)" stroke-width="0.360075" stroke-miterlimit="10"/>
<path d="M474.161 552.946C500.296 398.898 498.974 304.558 452.186 179.552C373.056 -31.9176 -59.8545 -268.719 -59.8545 -268.719" stroke="url(#paint30_linear_4143_46417)" stroke-width="0.360075" stroke-miterlimit="10"/>
<path d="M469.157 552.626C495.018 399.749 494.579 308.93 448.896 184.904C370.037 -29.1679 -70.2584 -260.495 -70.2584 -260.495" stroke="url(#paint31_linear_4143_46417)" stroke-width="0.360075" stroke-miterlimit="10"/>
<path d="M464.176 552.243C489.723 400.529 490.22 313.253 445.598 190.214C367.052 -26.4675 -80.6794 -252.342 -80.6794 -252.342" stroke="url(#paint32_linear_4143_46417)" stroke-width="0.360075" stroke-miterlimit="10"/>
<path d="M459.165 551.964C484.402 401.47 485.842 317.684 442.298 195.62C364.053 -23.6733 -91.0527 -244.058 -91.0527 -244.058" stroke="url(#paint33_linear_4143_46417)" stroke-width="0.360075" stroke-miterlimit="10"/>
<path d="M454.16 551.644C479.081 402.328 481.49 322.048 439.005 200.986C361.118 -20.9384 -101.458 -235.833 -101.458 -235.833" stroke="url(#paint34_linear_4143_46417)" stroke-width="0.360075" stroke-miterlimit="10"/>
<path d="M449.167 551.341C473.772 403.202 477.136 326.427 435.698 206.363C358.249 -18.1793 -111.866 -227.582 -111.866 -227.582" stroke="url(#paint35_linear_4143_46417)" stroke-width="0.360075" stroke-miterlimit="10"/>
<path d="M444.168 550.982C468.468 404.036 472.814 330.77 432.408 211.703C355.362 -15.4916 -122.253 -219.382 -122.253 -219.382" stroke="url(#paint36_linear_4143_46417)" stroke-width="0.360075" stroke-miterlimit="10"/>
<path d="M439.164 550.663C463.147 404.895 468.491 335.125 429.105 217.053C352.461 -12.7927 -132.655 -211.171 -132.655 -211.171" stroke="url(#paint37_linear_4143_46417)" stroke-width="0.360075" stroke-miterlimit="10"/>
<path d="M434.173 550.332C457.84 405.742 464.179 339.483 425.811 222.419C349.571 -10.0918 -143.007 -202.939 -143.007 -202.939" stroke="url(#paint38_linear_4143_46417)" stroke-width="0.360075" stroke-miterlimit="10"/>
<path d="M429.168 550.013C452.532 406.602 459.868 343.84 422.519 227.771C346.834 -7.39569 -153.467 -194.723 -153.467 -194.723" stroke="url(#paint39_linear_4143_46417)" stroke-width="0.360075" stroke-miterlimit="10"/>
<path d="M424.166 549.681C447.212 407.461 455.573 348.201 419.214 233.135C344.073 -4.70266 -163.857 -186.496 -163.857 -186.496" stroke="url(#paint40_linear_4143_46417)" stroke-width="0.360075" stroke-miterlimit="10"/>
<path d="M419.175 549.35C441.956 408.329 451.288 352.562 415.922 238.487C341.35 -2.01799 -174.261 -178.286 -174.261 -178.286" stroke="url(#paint41_linear_4143_46417)" stroke-width="0.360075" stroke-miterlimit="10"/>
<path d="M414.171 549.031C436.587 409.235 447.021 356.913 412.63 243.853C338.659 0.657961 -184.665 -170.061 -184.665 -170.061" stroke="url(#paint42_linear_4143_46417)" stroke-width="0.360075" stroke-miterlimit="10"/>
<path d="M409.169 548.699C431.277 410.026 442.754 361.263 409.326 249.204C335.997 3.32445 -195.056 -161.834 -195.056 -161.834" stroke="url(#paint43_linear_4143_46417)" stroke-width="0.360075" stroke-miterlimit="10"/>
<path d="M404.18 548.368C425.97 410.887 438.498 365.629 406.087 254.577C333.431 5.99139 -205.414 -153.548 -205.414 -153.548" stroke="url(#paint44_linear_4143_46417)" stroke-width="0.360075" stroke-miterlimit="10"/>
<path d="M399.174 548.049C420.66 411.747 434.242 369.981 402.728 259.92C330.795 8.64835 -215.864 -145.399 -215.864 -145.399" stroke="url(#paint45_linear_4143_46417)" stroke-width="0.360075" stroke-miterlimit="10"/>
<path d="M394.171 547.717C415.355 412.594 430.002 374.336 399.435 265.286C328.247 11.2908 -226.255 -137.173 -226.255 -137.173" stroke="url(#paint46_linear_4143_46417)" stroke-width="0.360075" stroke-miterlimit="10"/>
<path d="M389.18 547.4C410.034 413.452 425.801 378.696 396.144 270.638C325.738 13.939 -236.66 -128.949 -236.66 -128.949" stroke="url(#paint47_linear_4143_46417)" stroke-width="0.360075" stroke-miterlimit="10"/>
<path d="M384.179 547.068C404.728 414.313 421.546 383.063 392.84 276.002C323.289 16.569 -247.063 -120.724 -247.063 -120.724" stroke="url(#paint48_linear_4143_46417)" stroke-width="0.360075" stroke-miterlimit="10"/>
<path d="M379.173 546.735C399.417 415.173 417.329 387.421 389.546 281.354C320.862 19.2022 -257.468 -112.514 -257.468 -112.514" stroke="url(#paint49_linear_4143_46417)" stroke-width="0.360075" stroke-miterlimit="10"/>
<path d="M374.183 546.418C394.099 416.018 413.117 391.779 386.241 286.718C318.496 21.8309 -267.858 -104.287 -267.858 -104.287" stroke="url(#paint50_linear_4143_46417)" stroke-width="0.360075" stroke-miterlimit="10"/>
<path d="M369.18 546.086C388.791 416.879 408.928 396.156 382.95 292.07C316.17 24.4523 -278.263 -96.0625 -278.263 -96.0625" stroke="url(#paint51_linear_4143_46417)" stroke-width="0.360075" stroke-miterlimit="10"/>
</g>
</g>
<defs>
<linearGradient id="paint0_linear_4143_46417" x1="61.7105" y1="-277.282" x2="814.747" y2="324.443" gradientUnits="userSpaceOnUse">
<stop stop-color="#EB6F31"/>
<stop offset="1" stop-color="#113E8E"/>
</linearGradient>
<linearGradient id="paint1_linear_4143_46417" x1="768196" y1="-141924" x2="1.11482e+06" y2="52271.5" gradientUnits="userSpaceOnUse">
<stop stop-color="#EB6F31"/>
<stop offset="1" stop-color="#113E8E"/>
</linearGradient>
<linearGradient id="paint2_linear_4143_46417" x1="769923" y1="-129325" x2="1.1179e+06" y2="68195" gradientUnits="userSpaceOnUse">
<stop stop-color="#EB6F31"/>
<stop offset="1" stop-color="#113E8E"/>
</linearGradient>
<linearGradient id="paint3_linear_4143_46417" x1="768646" y1="-121925" x2="1.11831e+06" y2="75971.8" gradientUnits="userSpaceOnUse">
<stop stop-color="#EB6F31"/>
<stop offset="1" stop-color="#113E8E"/>
</linearGradient>
<linearGradient id="paint4_linear_4143_46417" x1="770065" y1="-112616" x2="1.12172e+06" y2="87351.4" gradientUnits="userSpaceOnUse">
<stop stop-color="#EB6F31"/>
<stop offset="1" stop-color="#113E8E"/>
</linearGradient>
<linearGradient id="paint5_linear_4143_46417" x1="770941" y1="-107385" x2="1.1255e+06" y2="92878.1" gradientUnits="userSpaceOnUse">
<stop stop-color="#EB6F31"/>
<stop offset="1" stop-color="#113E8E"/>
</linearGradient>
<linearGradient id="paint6_linear_4143_46417" x1="773177" y1="-94486.3" x2="1.12862e+06" y2="109755" gradientUnits="userSpaceOnUse">
<stop stop-color="#EB6F31"/>
<stop offset="1" stop-color="#113E8E"/>
</linearGradient>
<linearGradient id="paint7_linear_4143_46417" x1="774948" y1="-85664.3" x2="1.13222e+06" y2="120803" gradientUnits="userSpaceOnUse">
<stop stop-color="#EB6F31"/>
<stop offset="1" stop-color="#113E8E"/>
</linearGradient>
<linearGradient id="paint8_linear_4143_46417" x1="776673" y1="-76995.6" x2="1.13564e+06" y2="131707" gradientUnits="userSpaceOnUse">
<stop stop-color="#EB6F31"/>
<stop offset="1" stop-color="#113E8E"/>
</linearGradient>
<linearGradient id="paint9_linear_4143_46417" x1="778515" y1="-68495.8" x2="1.13911e+06" y2="142484" gradientUnits="userSpaceOnUse">
<stop stop-color="#EB6F31"/>
<stop offset="1" stop-color="#113E8E"/>
</linearGradient>
<linearGradient id="paint10_linear_4143_46417" x1="780490" y1="-60147.1" x2="1.14266e+06" y2="153179" gradientUnits="userSpaceOnUse">
<stop stop-color="#EB6F31"/>
<stop offset="1" stop-color="#113E8E"/>
</linearGradient>
<linearGradient id="paint11_linear_4143_46417" x1="780270" y1="-53326.7" x2="1.14334e+06" y2="161112" gradientUnits="userSpaceOnUse">
<stop stop-color="#EB6F31"/>
<stop offset="1" stop-color="#113E8E"/>
</linearGradient>
<linearGradient id="paint12_linear_4143_46417" x1="784625" y1="-43976.3" x2="1.14967e+06" y2="174167" gradientUnits="userSpaceOnUse">
<stop stop-color="#EB6F31"/>
<stop offset="1" stop-color="#113E8E"/>
</linearGradient>
<linearGradient id="paint13_linear_4143_46417" x1="786881" y1="-36131.6" x2="1.15326e+06" y2="184521" gradientUnits="userSpaceOnUse">
<stop stop-color="#EB6F31"/>
<stop offset="1" stop-color="#113E8E"/>
</linearGradient>
<linearGradient id="paint14_linear_4143_46417" x1="789083" y1="-28619.1" x2="1.15669e+06" y2="194472" gradientUnits="userSpaceOnUse">
<stop stop-color="#EB6F31"/>
<stop offset="1" stop-color="#113E8E"/>
</linearGradient>
<linearGradient id="paint15_linear_4143_46417" x1="788393" y1="-18154.2" x2="1.15484e+06" y2="207972" gradientUnits="userSpaceOnUse">
<stop stop-color="#EB6F31"/>
<stop offset="1" stop-color="#113E8E"/>
</linearGradient>
<linearGradient id="paint16_linear_4143_46417" x1="789823" y1="-15719.5" x2="1.15827e+06" y2="210512" gradientUnits="userSpaceOnUse">
<stop stop-color="#EB6F31"/>
<stop offset="1" stop-color="#113E8E"/>
</linearGradient>
<linearGradient id="paint17_linear_4143_46417" x1="796297" y1="-6676.87" x2="1.16691e+06" y2="224271" gradientUnits="userSpaceOnUse">
<stop stop-color="#EB6F31"/>
<stop offset="1" stop-color="#113E8E"/>
</linearGradient>
<linearGradient id="paint18_linear_4143_46417" x1="798825" y1="283.201" x2="1.17022e+06" y2="233940" gradientUnits="userSpaceOnUse">
<stop stop-color="#EB6F31"/>
<stop offset="1" stop-color="#113E8E"/>
</linearGradient>
<linearGradient id="paint19_linear_4143_46417" x1="801374" y1="7060.06" x2="1.17341e+06" y2="243447" gradientUnits="userSpaceOnUse">
<stop stop-color="#EB6F31"/>
<stop offset="1" stop-color="#113E8E"/>
</linearGradient>
<linearGradient id="paint20_linear_4143_46417" x1="804078" y1="13680.8" x2="1.17667e+06" y2="252884" gradientUnits="userSpaceOnUse">
<stop stop-color="#EB6F31"/>
<stop offset="1" stop-color="#113E8E"/>
</linearGradient>
<linearGradient id="paint21_linear_4143_46417" x1="806802" y1="19939.4" x2="1.17984e+06" y2="261914" gradientUnits="userSpaceOnUse">
<stop stop-color="#EB6F31"/>
<stop offset="1" stop-color="#113E8E"/>
</linearGradient>
<linearGradient id="paint22_linear_4143_46417" x1="809648" y1="26004.6" x2="1.18295e+06" y2="270851" gradientUnits="userSpaceOnUse">
<stop stop-color="#EB6F31"/>
<stop offset="1" stop-color="#113E8E"/>
</linearGradient>
<linearGradient id="paint23_linear_4143_46417" x1="807074" y1="35144.1" x2="1.17688e+06" y2="282918" gradientUnits="userSpaceOnUse">
<stop stop-color="#EB6F31"/>
<stop offset="1" stop-color="#113E8E"/>
</linearGradient>
<linearGradient id="paint24_linear_4143_46417" x1="815984" y1="37008.7" x2="1.18943e+06" y2="287726" gradientUnits="userSpaceOnUse">
<stop stop-color="#EB6F31"/>
<stop offset="1" stop-color="#113E8E"/>
</linearGradient>
<linearGradient id="paint25_linear_4143_46417" x1="813103" y1="43456.6" x2="1.18303e+06" y2="296058" gradientUnits="userSpaceOnUse">
<stop stop-color="#EB6F31"/>
<stop offset="1" stop-color="#113E8E"/>
</linearGradient>
<linearGradient id="paint26_linear_4143_46417" x1="816331" y1="43017.8" x2="1.18727e+06" y2="296131" gradientUnits="userSpaceOnUse">
<stop stop-color="#EB6F31"/>
<stop offset="1" stop-color="#113E8E"/>
</linearGradient>
<linearGradient id="paint27_linear_4143_46417" x1="826539" y1="51009" x2="1.19907e+06" y2="310687" gradientUnits="userSpaceOnUse">
<stop stop-color="#EB6F31"/>
<stop offset="1" stop-color="#113E8E"/>
</linearGradient>
<linearGradient id="paint28_linear_4143_46417" x1="823247" y1="57885.3" x2="1.19108e+06" y2="319883" gradientUnits="userSpaceOnUse">
<stop stop-color="#EB6F31"/>
<stop offset="1" stop-color="#113E8E"/>
</linearGradient>
<linearGradient id="paint29_linear_4143_46417" x1="826960" y1="56647.3" x2="1.19542e+06" y2="319257" gradientUnits="userSpaceOnUse">
<stop stop-color="#EB6F31"/>
<stop offset="1" stop-color="#113E8E"/>
</linearGradient>
<linearGradient id="paint30_linear_4143_46417" x1="837974" y1="62925.2" x2="1.20801e+06" y2="331826" gradientUnits="userSpaceOnUse">
<stop stop-color="#EB6F31"/>
<stop offset="1" stop-color="#113E8E"/>
</linearGradient>
<linearGradient id="paint31_linear_4143_46417" x1="841936" y1="66475.3" x2="1.21079e+06" y2="338475" gradientUnits="userSpaceOnUse">
<stop stop-color="#EB6F31"/>
<stop offset="1" stop-color="#113E8E"/>
</linearGradient>
<linearGradient id="paint32_linear_4143_46417" x1="846013" y1="69697" x2="1.21354e+06" y2="344756" gradientUnits="userSpaceOnUse">
<stop stop-color="#EB6F31"/>
<stop offset="1" stop-color="#113E8E"/>
</linearGradient>
<linearGradient id="paint33_linear_4143_46417" x1="850039" y1="72860.8" x2="1.21597e+06" y2="350992" gradientUnits="userSpaceOnUse">
<stop stop-color="#EB6F31"/>
<stop offset="1" stop-color="#113E8E"/>
</linearGradient>
<linearGradient id="paint34_linear_4143_46417" x1="854152" y1="75842.5" x2="1.2183e+06" y2="357061" gradientUnits="userSpaceOnUse">
<stop stop-color="#EB6F31"/>
<stop offset="1" stop-color="#113E8E"/>
</linearGradient>
<linearGradient id="paint35_linear_4143_46417" x1="858327" y1="78662.8" x2="1.22048e+06" y2="362949" gradientUnits="userSpaceOnUse">
<stop stop-color="#EB6F31"/>
<stop offset="1" stop-color="#113E8E"/>
</linearGradient>
<linearGradient id="paint36_linear_4143_46417" x1="862560" y1="84932.6" x2="1.22146e+06" y2="373882" gradientUnits="userSpaceOnUse">
<stop stop-color="#EB6F31"/>
<stop offset="1" stop-color="#113E8E"/>
</linearGradient>
<linearGradient id="paint37_linear_4143_46417" x1="866753" y1="83761.3" x2="1.22426e+06" y2="374092" gradientUnits="userSpaceOnUse">
<stop stop-color="#EB6F31"/>
<stop offset="1" stop-color="#113E8E"/>
</linearGradient>
<linearGradient id="paint38_linear_4143_46417" x1="870972" y1="86053.1" x2="1.22582e+06" y2="379327" gradientUnits="userSpaceOnUse">
<stop stop-color="#EB6F31"/>
<stop offset="1" stop-color="#113E8E"/>
</linearGradient>
<linearGradient id="paint39_linear_4143_46417" x1="875767" y1="84421.8" x2="1.22905e+06" y2="379140" gradientUnits="userSpaceOnUse">
<stop stop-color="#EB6F31"/>
<stop offset="1" stop-color="#113E8E"/>
</linearGradient>
<linearGradient id="paint40_linear_4143_46417" x1="879762" y1="89760.7" x2="1.2288e+06" y2="388686" gradientUnits="userSpaceOnUse">
<stop stop-color="#EB6F31"/>
<stop offset="1" stop-color="#113E8E"/>
</linearGradient>
<linearGradient id="paint41_linear_4143_46417" x1="883825" y1="94978.7" x2="1.22837e+06" y2="398034" gradientUnits="userSpaceOnUse">
<stop stop-color="#EB6F31"/>
<stop offset="1" stop-color="#113E8E"/>
</linearGradient>
<linearGradient id="paint42_linear_4143_46417" x1="888517" y1="93490.5" x2="1.23054e+06" y2="398012" gradientUnits="userSpaceOnUse">
<stop stop-color="#EB6F31"/>
<stop offset="1" stop-color="#113E8E"/>
</linearGradient>
<linearGradient id="paint43_linear_4143_46417" x1="892968" y1="94987" x2="1.23118e+06" y2="402138" gradientUnits="userSpaceOnUse">
<stop stop-color="#EB6F31"/>
<stop offset="1" stop-color="#113E8E"/>
</linearGradient>
<linearGradient id="paint44_linear_4143_46417" x1="897449" y1="96326.1" x2="1.23159e+06" y2="406011" gradientUnits="userSpaceOnUse">
<stop stop-color="#EB6F31"/>
<stop offset="1" stop-color="#113E8E"/>
</linearGradient>
<linearGradient id="paint45_linear_4143_46417" x1="902277" y1="96538.8" x2="1.23253e+06" y2="408351" gradientUnits="userSpaceOnUse">
<stop stop-color="#EB6F31"/>
<stop offset="1" stop-color="#113E8E"/>
</linearGradient>
<linearGradient id="paint46_linear_4143_46417" x1="906803" y1="98574.7" x2="1.23217e+06" y2="413072" gradientUnits="userSpaceOnUse">
<stop stop-color="#EB6F31"/>
<stop offset="1" stop-color="#113E8E"/>
</linearGradient>
<linearGradient id="paint47_linear_4143_46417" x1="912113" y1="96370.9" x2="1.23386e+06" y2="412069" gradientUnits="userSpaceOnUse">
<stop stop-color="#EB6F31"/>
<stop offset="1" stop-color="#113E8E"/>
</linearGradient>
<linearGradient id="paint48_linear_4143_46417" x1="916473" y1="100227" x2="1.23206e+06" y2="419056" gradientUnits="userSpaceOnUse">
<stop stop-color="#EB6F31"/>
<stop offset="1" stop-color="#113E8E"/>
</linearGradient>
<linearGradient id="paint49_linear_4143_46417" x1="921206" y1="104792" x2="1.23025e+06" y2="426965" gradientUnits="userSpaceOnUse">
<stop stop-color="#EB6F31"/>
<stop offset="1" stop-color="#113E8E"/>
</linearGradient>
<linearGradient id="paint50_linear_4143_46417" x1="926535" y1="101293" x2="1.23141e+06" y2="423877" gradientUnits="userSpaceOnUse">
<stop stop-color="#EB6F31"/>
<stop offset="1" stop-color="#113E8E"/>
</linearGradient>
<linearGradient id="paint51_linear_4143_46417" x1="931731" y1="101614" x2="1.23089e+06" y2="425826" gradientUnits="userSpaceOnUse">
<stop stop-color="#EB6F31"/>
<stop offset="1" stop-color="#113E8E"/>
</linearGradient>
<clipPath id="clip0_4143_46417">
<rect width="240" height="262.57" fill="white"/>
</clipPath>
<clipPath id="clip1_4143_46417">
<rect width="991.83" height="1032" fill="white" transform="translate(-204.104 -584.749) rotate(8.63045)"/>
</clipPath>
</defs>
</svg>
