<svg width="40" height="40" viewBox="0 0 40 40" fill="none" xmlns="http://www.w3.org/2000/svg">
<path d="M19.9731 18.2567L13.0718 11.3555C12.8442 11.1279 12.5355 11 12.2137 11C11.8918 11 11.5831 11.1279 11.3555 11.3555C11.1279 11.5831 11 11.8918 11 12.2137C11 12.5356 11.1279 12.8443 11.3555 13.0719L18.2567 19.9731L11.3555 26.8743C11.1279 27.1019 11 27.4106 11 27.7325C11 28.0543 11.1279 28.363 11.3555 28.5906C11.5831 28.8182 11.8918 28.9461 12.2137 28.9461C12.5356 28.9461 12.8443 28.8182 13.0719 28.5906L19.9731 21.6895L26.8743 28.5907C27.1019 28.8183 27.4106 28.9462 27.7325 28.9462C28.0543 28.9462 28.363 28.8183 28.5906 28.5907C28.8182 28.3631 28.9461 28.0544 28.9461 27.7325C28.9461 27.4106 28.8182 27.1019 28.5906 26.8743L21.6894 19.9731L28.5907 13.0718C28.8183 12.8442 28.9461 12.5355 28.9461 12.2137C28.9461 11.8918 28.8183 11.5831 28.5907 11.3555C28.3631 11.1279 28.0544 11 27.7325 11C27.4106 11 27.1019 11.1279 26.8743 11.3555L19.9731 18.2567Z" fill="#080B22"/>
</svg>
