<svg width="36" height="36" viewBox="0 0 36 36" fill="none" xmlns="http://www.w3.org/2000/svg">
<g clip-path="url(#clip0_4093_41377)">
<path d="M18 4.83594C10.5412 4.83594 4.5 10.8806 4.5 18.3359C4.5 24.3018 8.36775 29.3609 13.7306 31.1441C14.4056 31.2712 14.6531 30.8538 14.6531 30.4949C14.6531 30.1743 14.6419 29.3249 14.6363 28.1999C10.881 29.0144 10.089 26.3887 10.089 26.3887C9.47475 24.8306 8.58712 24.4143 8.58712 24.4143C7.36425 23.5773 8.68162 23.5942 8.68162 23.5942C10.0373 23.6887 10.7494 24.9847 10.7494 24.9847C11.9531 27.0491 13.9095 26.4528 14.6813 26.1074C14.8028 25.2344 15.1504 24.6393 15.5363 24.3018C12.5381 23.9643 9.387 22.8033 9.387 17.6306C9.387 16.1568 9.91012 14.9531 10.7764 14.0081C10.6245 13.6672 10.1689 12.2947 10.8945 10.4351C10.8945 10.4351 12.0251 10.0728 14.607 11.8188C15.687 11.5184 16.8345 11.3699 17.982 11.3632C19.1295 11.3699 20.277 11.5184 21.357 11.8188C23.922 10.0728 25.0526 10.4351 25.0526 10.4351C25.7782 12.2947 25.3226 13.6672 25.1876 14.0081C26.0483 14.9531 26.5714 16.1568 26.5714 17.6306C26.5714 22.8168 23.4158 23.9587 20.412 24.2906C20.8845 24.6956 21.3232 25.5236 21.3232 26.7881C21.3232 28.5948 21.3064 30.0461 21.3064 30.4848C21.3064 30.8392 21.5426 31.2611 22.2345 31.1261C27.6356 29.3553 31.5 24.2928 31.5 18.3359C31.5 10.8806 25.4554 4.83594 18 4.83594Z" fill="#ffffff"/>
</g>
<defs>
<clipPath id="clip0_4093_41377">
<rect width="27" height="27" fill="white" transform="translate(4.49902 4.5)"/>
</clipPath>
</defs>
</svg>
