<svg width="40" height="40" viewBox="0 0 40 40" fill="none" xmlns="http://www.w3.org/2000/svg">
<g clip-path="url(#clip0_3665_43113)">
<path fill-rule="evenodd" clip-rule="evenodd" d="M9.88211 13.4273H31.829C32.1509 13.4273 32.4596 13.2994 32.6872 13.0718C32.9148 12.8442 33.0427 12.5355 33.0427 12.2137C33.0427 11.8918 32.9148 11.5831 32.6872 11.3555C32.4596 11.1279 32.1509 11 31.829 11H9.88211C9.56023 11 9.25153 11.1279 9.02393 11.3555C8.79632 11.5831 8.66846 11.8918 8.66846 12.2137C8.66846 12.5355 8.79632 12.8442 9.02393 13.0718C9.25153 13.2994 9.56023 13.4273 9.88211 13.4273ZM31.829 19.091H14.5344C14.2126 19.091 13.9039 19.2189 13.6763 19.4465C13.4487 19.6741 13.3208 19.9828 13.3208 20.3047C13.3208 20.6266 13.4487 20.9353 13.6763 21.1629C13.9039 21.3905 14.2126 21.5183 14.5344 21.5183H31.829C32.1509 21.5183 32.4596 21.3905 32.6872 21.1629C32.9148 20.9353 33.0427 20.6266 33.0427 20.3047C33.0427 19.9828 32.9148 19.6741 32.6872 19.4465C32.4596 19.2189 32.1509 19.091 31.829 19.091ZM31.829 27.182H9.88211C9.56023 27.182 9.25153 27.3099 9.02393 27.5375C8.79632 27.7651 8.66846 28.0738 8.66846 28.3957C8.66846 28.7176 8.79632 29.0263 9.02393 29.2539C9.25153 29.4815 9.56023 29.6094 9.88211 29.6094H31.829C32.1509 29.6094 32.4596 29.4815 32.6872 29.2539C32.9148 29.0263 33.0427 28.7176 33.0427 28.3957C33.0427 28.0738 32.9148 27.7651 32.6872 27.5375C32.4596 27.3099 32.1509 27.182 31.829 27.182Z" fill="#080B22"/>
</g>
<defs>
<clipPath id="clip0_3665_43113">
<rect width="26.7004" height="18.6094" fill="white" transform="translate(7 11)"/>
</clipPath>
</defs>
</svg>
