<svg width="36" height="36" viewBox="0 0 36 36" fill="none" xmlns="http://www.w3.org/2000/svg">
<g clip-path="url(#clip0_4093_41382)">
<path d="M31.4471 9.64129C30.4363 10.0863 29.3654 10.3801 28.269 10.5132C29.4234 9.81932 30.2877 8.73121 30.7024 7.44979C29.6325 8.07416 28.4467 8.52866 27.1845 8.78179C26.3517 7.89127 25.2482 7.30064 24.0453 7.1016C22.8425 6.90257 21.6075 7.10627 20.5323 7.68108C19.4571 8.25588 18.6017 9.16963 18.0991 10.2804C17.5964 11.3912 17.4746 12.6369 17.7525 13.824C13.1512 13.6069 9.07538 11.3963 6.345 8.05729C5.84864 8.90083 5.58975 9.86294 5.59575 10.8417C5.59575 12.7654 6.5745 14.4563 8.05725 15.4497C7.17847 15.4217 6.31909 15.1841 5.55075 14.7567V14.8242C5.55025 16.1026 5.99205 17.3418 6.80119 18.3316C7.61034 19.3214 8.73699 20.0008 9.99 20.2545C9.17809 20.4721 8.32771 20.5048 7.5015 20.3502C7.85714 21.4504 8.54737 22.4122 9.47589 23.1013C10.4044 23.7905 11.5249 24.1726 12.681 24.1943C10.723 25.731 8.30529 26.565 5.81625 26.5624C5.3775 26.5624 4.93988 26.5365 4.5 26.487C7.03767 28.1119 9.98833 28.9744 13.0016 28.9722C23.1863 28.9722 28.7494 20.5392 28.7494 13.239C28.7494 13.0028 28.7494 12.7665 28.7325 12.5303C29.8192 11.7483 30.7566 10.7773 31.5 9.66379L31.4471 9.64129Z" fill="#1DA1F2"/>
</g>
<defs>
<clipPath id="clip0_4093_41382">
<rect width="27" height="27" fill="white" transform="translate(4.5 4.5)"/>
</clipPath>
</defs>
</svg>
