<svg xmlns="http://www.w3.org/2000/svg" width="513" height="513" fill="none" viewBox="0 0 513 513"><path fill="url(#a)" d="M408.32 315.33c.39-1.55.76-3.14 1.13-4.72-.37 1.58-.74 3.17-1.13 4.72Z"/><path fill="url(#b)" d="M410.44 306.34c.69-3.17 1.35-6.38 1.94-9.65-.59 3.31-1.25 6.48-1.94 9.65Z"/><path fill="url(#c)" d="M406.14 323.4c.19-.64.36-1.29.54-1.93l-.54 1.93Z"/><path fill="url(#d)" d="M195.9 155.57c5.399 2.905 11 5.418 16.76 7.52-5.45-2.8-11.045-5.31-16.76-7.52Z"/><path fill="url(#e)" d="M267.12 76.06s158.2 48.35 145.26 220.63c-.59 3.27-1.25 6.48-1.94 9.65-.31 1.44-.66 2.85-1 4.27-.37 1.58-.74 3.17-1.13 4.72-.52 2.07-1.08 4.11-1.64 6.14-.18.64-.35 1.29-.54 1.93-27.25 95.6-98.49 142.17-155.71 161.49a225.644 225.644 0 0 1-60.51 11.47 155.93 155.93 0 0 1-19.42-.1 257.183 257.183 0 0 0 88.6 14.74c141.22-1.44 254.53-116.13 253.09-256.18a250.903 250.903 0 0 0-33.64-123.2c1.57 7 3.09 14.13 4.55 21.56C507.66 278.91 431 344.08 431 344.08s50.12-53.74 10-197.69c-21.78-78.2-58.4-108.18-60.8-110.94C345.5 6.7 318-2.23 288.86 5.82c-80.56 41.46-21.74 70.24-21.74 70.24Z"/><path fill="url(#f)" d="M170.49 496.26c.86 0 187.49 14.72 235.65-172.86.17-.65.36-1.29.54-1.93.57-2 1.11-4.07 1.64-6.14.39-1.55.76-3.14 1.13-4.72.34-1.42.68-2.83 1-4.27.69-3.17 1.35-6.38 1.94-9.65C425.32 124.41 267.12 76.06 267.12 76.06S208.3 47.28 288.86 5.82c-37.05 10-62.11 29.19-61.88 51 .15 15.07 12.42 28.64 32.3 38.65a226.384 226.384 0 0 1 17.09 7.08 206.593 206.593 0 0 1 65.1 46.86c27.9 30.23 44.72 68.32 45.15 109.87 1 99.68-92.61 181.44-209.15 182.62-47.91.49-92.23-12.72-127.89-35.38a256.332 256.332 0 0 0 120.91 89.74Z"/><path fill="url(#g)" d="M406.68 321.47c.56-2 1.12-4.07 1.64-6.14-.53 2.07-1.07 4.11-1.64 6.14Z"/><path fill="url(#h)" d="M409.45 310.61c.33-1.42.68-2.83 1-4.27-.32 1.44-.66 2.85-1 4.27Z"/><path fill="url(#i)" d="M212.66 163.09a128.045 128.045 0 0 1-16.76-7.52c-28.48-15.44-47.09-40.43-47.39-68.81 0-1.45 0-2.9.1-4.33 1.89-33.75 29.75-62.66 69.12-75.73-98.6 14.86-178.45 85.48-206.32 178.14a97.78 97.78 0 0 1 38.17-7.7c53.84 0 97.49 43.28 97.49 96.68 0 53.4-43.65 96.68-97.49 96.68a98.565 98.565 0 0 1-23.4-2.83c1.18 2.433 2.4 4.843 3.66 7.23 2.98 5.653 6.16 11.18 9.54 16.58 15.42 21.85 56.4 23.8 89.24 23.94 92.22.41 161.64-64.8 160.87-139.21-.49-47.94-31.13-89.7-76.83-113.12Z"/><path fill="url(#j)" d="M147.07 273.82c0-53.4-43.65-96.68-97.49-96.68a97.781 97.781 0 0 0-38.17 7.7c-2.19 7.3-4.11 14.73-5.64 22.29a252.42 252.42 0 0 0 20.41 160.54 98.565 98.565 0 0 0 23.4 2.83c53.84 0 97.49-43.29 97.49-96.68Z"/><path fill="url(#k)" d="M147.07 273.82c0-53.4-43.65-96.68-97.49-96.68a97.781 97.781 0 0 0-38.17 7.7c-2.19 7.3-4.11 14.73-5.64 22.29a252.42 252.42 0 0 0 20.41 160.54 98.565 98.565 0 0 0 23.4 2.83c53.84 0 97.49-43.29 97.49-96.68Z"/><defs><linearGradient id="a" x1="409.467" x2="408.287" y1="312.967" y2="312.979" gradientUnits="userSpaceOnUse"><stop stop-color="#BED630"/><stop offset="1" stop-color="#58A947" stop-opacity=".97"/></linearGradient><linearGradient id="b" x1="435.485" x2="439.424" y1="2640.96" y2="2640.96" gradientUnits="userSpaceOnUse"><stop stop-color="#BED630"/><stop offset="1" stop-color="#58A947" stop-opacity=".97"/></linearGradient><linearGradient id="c" x1="416.324" x2="416.627" y1="750.063" y2="750.063" gradientUnits="userSpaceOnUse"><stop stop-color="#BED630"/><stop offset="1" stop-color="#58A947" stop-opacity=".97"/></linearGradient><linearGradient id="d" x1="3736.45" x2="4015.84" y1="3067.54" y2="3067.54" gradientUnits="userSpaceOnUse"><stop stop-color="#BED630"/><stop offset="1" stop-color="#58A947" stop-opacity=".97"/></linearGradient><linearGradient id="e" x1="512.152" x2="168.04" y1="254.636" y2="258.18" gradientUnits="userSpaceOnUse"><stop stop-color="#F6C214"/><stop offset="1" stop-color="#EC7D23" stop-opacity=".97"/></linearGradient><linearGradient id="f" x1="412.842" x2="47.992" y1="249.349" y2="253.106" gradientUnits="userSpaceOnUse"><stop stop-color="#EB7D23"/><stop offset="1" stop-color="#CB6526"/></linearGradient><linearGradient id="g" x1="434.806" x2="437.611" y1="1703.53" y2="1703.53" gradientUnits="userSpaceOnUse"><stop stop-color="#BED630"/><stop offset="1" stop-color="#58A947" stop-opacity=".97"/></linearGradient><linearGradient id="h" x1="424.39" x2="425.42" y1="1314.01" y2="1314.01" gradientUnits="userSpaceOnUse"><stop stop-color="#BED630"/><stop offset="1" stop-color="#58A947" stop-opacity=".97"/></linearGradient><linearGradient id="i" x1=".75" x2="289.5" y1="211.06" y2="211.06" gradientUnits="userSpaceOnUse"><stop stop-color="#F89E1D"/><stop offset="1" stop-color="#F26F23" stop-opacity=".97"/></linearGradient><linearGradient id="j" x1="37277.1" x2="79528.5" y1="52542.9" y2="52542.9" gradientUnits="userSpaceOnUse"><stop stop-color="#BED630"/><stop offset="1" stop-color="#58A947" stop-opacity=".97"/></linearGradient><linearGradient id="k" x1="-47.91" x2="147.07" y1="273.82" y2="273.82" gradientUnits="userSpaceOnUse"><stop stop-color="#ED7452" stop-opacity=".97"/><stop offset=".03" stop-color="#EC7350" stop-opacity=".97"/><stop offset="1" stop-color="#DC4227" stop-opacity=".97"/></linearGradient></defs></svg>